<?xml version="1.0" standalone="no"?>
<!DOCTYPE svg PUBLIC "-//W3C//DTD SVG 20010904//EN" "http://www.w3.org/TR/2001/REC-SVG-20010904/DTD/svg10.dtd">
<svg xmlns="http://www.w3.org/2000/svg" version="1.0" width="1024.000000pt" height="132.000000pt" viewBox="0 0 1024.000000 132.000000" preserveAspectRatio="xMidYMid meet">
<metadata>
Created by potrace 1.16, written by Peter Selinger 2001-2019
<meta name="Producer" content="Online-Convert"/></metadata>
<g transform="translate(0.000000,132.000000) scale(0.100000,-0.100000)" fill="#7028ff84" stroke="none">
<path d="M5710 1192 c0 -4 111 -208 246 -452 135 -244 250 -452 255 -462 9 -17 -2 -18 -221 -18 l-230 0 -30 60 -30 60 -218 0 -217 -1 -35 -62 c-24 -43 -42 -63 -58 -65 -17 -3 -22 2 -22 17 0 23 24 65 318 561 116 195 209 357 206 360 -10 9 -36 -32 -244 -384 l-205 -346 -5 322 c-5 336 -8 355 -50 378 -10 5 -43 9 -72 9 -29 -1 -43 -4 -30 -6 l22 -4 0 -471 0 -470 -27 18 c-95 63 -763 444 -778 444 -4 0 -6 -96 -4 -212 l4 -213 -25 0 -25 0 -5 465 c-5 451 -6 464 -23 439 -12 -18 -20 -54 -24 -111 l-6 -84 -59 62 c-109 114 -242 165 -419 163 l-104 -2 85 -7 c104 -8 171 -30 247 -79 258 -167 288 -542 60 -747 -284 -255 -735 -89 -790 290 -27 188 62 373 227 471 33 19 55 35 50 35 -19 0 -129 -71 -165 -106 l-36 -36 -5 63 c-6 85 -25 100 -122 97 -40 -1 -55 -3 -33 -5 72 -8 49 -33 -108 -122 l-145 -82 135 -267 c74 -147 155 -302 180 -344 26 -43 44 -82 40 -88 -3 -5 -19 -10 -34 -10 -26 0 -35 16 -191 340 -91 187 -168 340 -173 340 -4 0 -33 -14 -64 -32 l-56 -32 6 -303 6 -303 -205 0 -204 0 0 447 c0 426 -1 446 -17 430 -14 -13 -19 -38 -22 -102 -1 -47 -5 -85 -7 -85 -2 0 -34 31 -69 69 -114 120 -244 172 -426 170 l-104 -2 85 -7 c104 -8 171 -30 247 -79 76 -49 127 -109 171 -200 32 -66 36 -84 40 -175 3 -85 1 -111 -18 -166 -54 -161 -173 -272 -337 -315 -250 -65 -511 93 -578 350 -52 200 38 413 219 520 33 19 55 35 50 35 -19 0 -129 -71 -165 -106 l-36 -36 -5 63 c-6 85 -25 100 -122 97 -40 -1 -55 -3 -33 -5 72 -8 49 -33 -108 -122 l-145 -82 135 -267 c74 -147 155 -302 180 -344 26 -43 44 -82 40 -88 -3 -5 -19 -10 -34 -10 -26 0 -35 16 -191 340 -91 187 -168 340 -173 340 -4 0 -33 -14 -64 -32 l-56 -32 6 -303 6 -303 -205 0 -205 0 1 368 c2 562 3 529 -17 509 -17 -16 -18 -56 -21 -490 -2 -520 -3 -513 58 -534 47 -16 403 -16 450 0 57 20 60 33 60 332 l0 270 86 -175 c47 -96 112 -230 145 -297 35 -73 67 -127 80 -134 29 -15 129 -15 157 0 13 7 25 25 29 42 3 16 9 32 14 34 4 3 29 -8 55 -25 163 -103 410 -113 589 -23 54 27 135 95 167 139 17 24 35 41 39 38 5 -3 9 -35 9 -72 0 -82 15 -113 60 -129 47 -16 403 -16 450 0 57 20 60 33 60 332 l0 270 86 -175 c47 -96 112 -230 145 -297 35 -73 67 -127 80 -134 29 -15 129 -15 157 0 13 7 25 25 29 42 3 16 9 32 14 34 4 3 29 -8 55 -25 163 -103 410 -113 589 -23 51 26 134 94 164 134 l28 39 7 -81 c10 -108 29 -129 114 -129 44 0 66 5 83 19 23 18 24 25 27 175 2 86 6 156 9 156 10 0 191 -102 421 -237 232 -136 252 -144 355 -123 96 19 111 27 142 80 l29 50 157 0 157 0 26 -45 c15 -24 37 -50 49 -57 17 -10 133 -14 484 -15 498 -3 526 -1 550 47 16 31 19 923 3 964 -5 14 -19 30 -32 37 -29 16 -351 24 -428 11 -44 -8 -17 -10 145 -11 l200 -1 0 -445 0 -445 -202 0 -203 0 0 441 c0 243 -2 444 -4 446 -2 3 -12 -7 -21 -20 -14 -22 -16 -64 -15 -341 0 -174 -3 -316 -8 -316 -5 0 -95 158 -202 351 -106 193 -203 357 -214 365 -21 15 -96 20 -96 6z m-4420 -236 c0 -2 -13 -32 -29 -67 -33 -73 -51 -150 -51 -214 0 -25 -3 -45 -8 -45 -4 0 -31 48 -60 106 -44 88 -51 109 -40 120 15 15 169 104 181 104 4 0 7 -2 7 -4z m1940 0 c0 -2 -13 -32 -29 -67 -33 -73 -51 -150 -51 -214 0 -25 -3 -45 -8 -45 -4 0 -31 48 -60 106 -44 88 -51 109 -40 120 15 15 169 104 181 104 4 0 7 -2 7 -4z"/>
<path d="M4250 1187 c0 -8 156 -104 350 -214 229 -131 429 -243 434 -243 2 0 3 97 2 215 -1 118 -4 215 -8 215 -4 0 -14 -13 -23 -30 -11 -22 -15 -63 -15 -170 0 -77 -4 -140 -8 -140 -9 0 -283 155 -490 277 -110 65 -153 85 -192 90 -28 3 -50 3 -50 0z"/>
<path d="M405 1160 c-23 -4 46 -8 162 -9 l203 -1 -7 -112 c-5 -95 -4 -111 8 -106 8 3 66 38 129 78 63 40 141 89 173 108 32 19 56 37 53 39 -4 4 -110 -58 -184 -109 -46 -32 -46 -31 -56 36 -7 51 -24 67 -83 77 -59 10 -343 9 -398 -1z"/>
<path d="M2345 1160 c-23 -4 46 -8 162 -9 l203 -1 -7 -112 c-5 -95 -4 -111 8 -106 8 3 66 38 129 78 63 40 141 89 173 108 32 19 56 37 53 39 -4 4 -110 -58 -184 -109 -46 -32 -46 -31 -56 36 -7 51 -24 67 -83 77 -59 10 -343 9 -398 -1z"/>
<path d="M7195 1160 c-23 -4 46 -8 163 -9 l204 -1 -4 -152 -3 -153 155 -3 c85 -2 178 0 207 3 l52 6 3 155 c2 85 -1 154 -5 154 -22 0 -37 -75 -37 -185 l0 -115 -124 0 -124 0 -4 130 c-4 149 -8 158 -85 171 -59 10 -343 9 -398 -1z"/>
<path d="M8006 1163 c12 -2 24 -12 25 -21 2 -9 3 -214 1 -455 l-3 -438 -27 3 -27 3 1 268 1 267 -215 0 -215 0 7 -265 7 -265 -206 0 -205 0 0 447 c0 426 -1 446 -17 430 -17 -16 -18 -56 -21 -490 -2 -520 -3 -513 58 -534 47 -16 403 -16 450 0 56 19 60 36 60 290 l0 227 125 0 124 0 3 -246 c3 -245 3 -246 27 -265 30 -25 141 -27 165 -4 16 17 33 68 38 120 l3 30 22 -37 c12 -20 41 -51 64 -68 143 -103 536 -118 718 -26 45 23 131 107 131 128 0 5 5 6 10 3 6 -3 10 -25 10 -48 0 -57 19 -90 60 -104 43 -15 520 -17 629 -3 133 17 221 72 267 167 23 45 28 69 28 132 0 42 -6 93 -13 115 -12 36 -11 42 15 95 27 51 29 65 29 166 0 94 -3 117 -24 163 -41 91 -136 162 -266 198 -72 19 -536 32 -625 16 -42 -7 10 -10 220 -11 289 -1 333 -7 418 -50 103 -52 157 -138 156 -247 0 -62 -4 -78 -30 -120 -16 -27 -44 -59 -62 -71 -32 -21 -32 -22 -13 -33 11 -5 32 -31 47 -56 22 -38 26 -53 22 -103 -5 -67 -33 -113 -100 -161 -60 -44 -112 -50 -429 -50 l-290 0 1 298 c1 163 1 363 1 444 l-1 146 -31 11 c-18 6 -55 10 -83 10 -28 -1 -40 -4 -27 -6 l24 -5 -7 -296 c-4 -164 -11 -326 -17 -362 -19 -125 -88 -207 -205 -246 -48 -15 -88 -19 -214 -19 -134 0 -165 3 -230 23 -62 20 -83 32 -122 72 -72 74 -76 98 -84 485 l-6 331 -39 12 c-21 7 -60 11 -86 11 -27 -1 -38 -4 -27 -6z"/>
<path d="M8205 1161 c-25 -5 35 -9 162 -10 l202 -1 -6 -436 -6 -437 106 5 c94 4 113 8 171 37 106 52 132 106 147 311 6 74 9 224 7 332 -3 197 -3 197 -23 177 -19 -18 -20 -37 -26 -342 -4 -198 -11 -336 -18 -359 -25 -80 -104 -137 -188 -138 l-43 0 0 394 c0 226 -4 405 -10 420 -17 45 -41 50 -245 52 -104 1 -208 -1 -230 -5z"/>
<path d="M1680 705 l0 -425 54 0 c111 0 254 69 318 152 134 176 128 410 -15 565 -73 79 -196 133 -303 133 l-54 0 0 -425z m224 233 c56 -29 128 -100 162 -160 26 -48 29 -62 29 -143 0 -78 -4 -97 -27 -140 -36 -70 -102 -133 -173 -166 -33 -16 -65 -29 -71 -29 -21 0 -31 339 -17 563 l6 107 26 -7 c14 -3 44 -15 65 -25z"/>
<path d="M3620 705 l0 -425 54 0 c111 0 254 69 318 152 134 176 128 410 -15 565 -73 79 -196 133 -303 133 l-54 0 0 -425z m224 233 c56 -29 128 -100 162 -160 26 -48 29 -62 29 -143 0 -78 -4 -97 -27 -140 -36 -70 -102 -133 -173 -166 -33 -16 -65 -29 -71 -29 -21 0 -31 339 -17 563 l6 107 26 -7 c14 -3 44 -15 65 -25z"/>
<path d="M9565 910 c-4 -105 -4 -284 0 -397 l7 -205 102 4 c74 3 113 10 147 25 158 71 136 283 -30 283 -64 0 -117 21 -126 50 -10 32 -1 35 59 20 77 -18 140 -9 178 26 42 41 58 76 59 132 2 74 -16 116 -72 166 -61 55 -120 76 -230 83 l-87 6 -7 -193z m240 4 c20 -9 53 -33 71 -52 44 -45 48 -106 10 -141 -23 -22 -30 -22 -110 -16 l-86 7 0 115 0 116 39 -6 c21 -2 55 -13 76 -23z m5 -450 c55 -8 80 -43 57 -78 -20 -30 -71 -54 -127 -57 l-45 -4 -3 79 -3 78 41 -6 c22 -3 58 -9 80 -12z"/>
<path d="M5423 643 c-39 -65 -82 -139 -97 -165 l-28 -48 187 0 186 0 -82 158 c-45 86 -85 161 -89 165 -4 5 -39 -45 -77 -110z"/>
</g>
</svg>
