<?xml version="1.0" standalone="no"?>
<!DOCTYPE svg PUBLIC "-//W3C//DTD SVG 20010904//EN"
 "http://www.w3.org/TR/2001/REC-SVG-20010904/DTD/svg10.dtd">
<svg version="1.0" xmlns="http://www.w3.org/2000/svg"
 width="1024.000000pt" height="1024.000000pt" viewBox="0 0 1024.000000 1024.000000"
 preserveAspectRatio="xMidYMid meet">

<g transform="translate(0.000000,1024.000000) scale(0.100000,-0.100000)"
fill="#000000" stroke="none">
<path d="M4985 8536 c-349 -68 -618 -308 -716 -641 -21 -71 -24 -101 -24 -255
0 -153 3 -185 23 -255 88 -306 317 -547 612 -644 249 -82 519 -53 737 79 216
132 359 317 428 555 38 131 45 313 16 450 -23 113 -54 194 -105 281 -118 197
-336 360 -556 415 -108 26 -315 34 -415 15z"/>
<path d="M2904 8173 c-48 -113 -98 -365 -115 -578 -68 -846 300 -1637 996
-2137 440 -316 1034 -482 1570 -438 754 62 1463 490 1845 1115 155 253 275
585 325 900 22 137 31 483 16 615 -18 154 -56 341 -93 455 -40 122 -41 122
-195 69 -481 -166 -832 -439 -1001 -779 -16 -33 -50 -125 -76 -204 -107 -329
-199 -452 -491 -656 -82 -58 -183 -138 -224 -178 -85 -83 -169 -204 -212 -309
-36 -87 -79 -246 -80 -297 l-1 -36 -9 30 c-5 17 -14 55 -20 85 -24 131 -82
275 -154 385 -72 111 -163 198 -307 295 -175 118 -251 181 -318 265 -84 107
-131 199 -195 385 -98 284 -158 391 -310 549 -150 155 -323 273 -557 378 -135
60 -315 123 -354 123 -19 0 -29 -8 -40 -37z m433 -476 c281 -162 446 -358 574
-677 37 -93 83 -199 104 -236 97 -181 224 -315 421 -445 250 -166 327 -256
411 -478 24 -65 24 -83 0 -63 -8 7 -88 50 -178 98 -232 121 -330 181 -467 283
-200 149 -354 313 -502 534 -40 59 -77 106 -84 104 -22 -8 -8 -74 40 -186 153
-360 374 -617 719 -839 61 -39 154 -99 208 -134 98 -62 223 -173 265 -235 l22
-31 -62 14 c-225 52 -382 106 -542 186 -532 267 -919 743 -1066 1313 -53 204
-76 466 -60 683 5 76 13 152 16 169 l6 32 47 -22 c25 -12 83 -43 128 -70z
m3852 -134 c22 -376 -45 -727 -199 -1049 -260 -546 -754 -935 -1389 -1096 -64
-16 -124 -27 -134 -26 -14 2 -3 20 53 80 83 90 157 146 340 256 166 99 235
147 341 237 167 142 315 338 426 565 68 138 111 266 96 281 -18 18 -38 -1 -83
-74 -108 -175 -279 -367 -450 -506 -135 -110 -254 -188 -473 -308 -106 -58
-206 -116 -223 -129 l-32 -23 20 67 c60 205 157 326 380 474 300 199 432 364
558 698 129 344 323 563 647 732 l98 50 8 -43 c4 -24 11 -108 16 -186z"/>
<path d="M2635 4329 c-248 -49 -441 -216 -519 -449 -80 -241 -51 -505 76 -703
120 -184 333 -297 563 -297 280 0 510 148 625 404 49 108 64 188 63 331 -1
187 -39 310 -140 453 -81 114 -220 210 -358 247 -73 20 -242 28 -310 14z m228
-309 c239 -74 338 -449 179 -684 -98 -146 -286 -197 -440 -119 -163 82 -238
315 -176 543 38 136 127 232 246 264 74 20 115 19 191 -4z"/>
<path d="M5239 4321 c-127 -28 -236 -88 -329 -181 -283 -282 -277 -803 12
-1076 125 -117 257 -172 438 -181 202 -11 366 53 510 197 131 130 192 270 206
468 12 167 -32 348 -117 479 -88 134 -242 247 -394 288 -96 25 -226 28 -326 6z
m309 -322 c63 -31 117 -88 155 -164 26 -52 47 -159 47 -236 0 -234 -130 -399
-327 -416 -226 -19 -384 151 -385 417 -1 223 97 378 271 427 71 20 164 9 239
-28z"/>
<path d="M983 4304 c-10 -5 -13 -154 -13 -700 l0 -694 163 2 162 3 3 299 2
298 143 -203 c78 -112 174 -248 211 -301 l69 -98 189 0 c207 0 216 3 181 57
-10 15 -76 109 -147 208 -72 99 -174 242 -229 318 l-98 139 41 55 c72 95 399
552 410 574 25 45 12 49 -167 49 -92 0 -173 -4 -179 -8 -7 -4 -74 -97 -149
-207 -75 -110 -166 -244 -203 -298 l-67 -97 -5 302 -5 303 -150 2 c-82 1 -156
-1 -162 -3z"/>
<path d="M3610 4291 c-11 -21 -15 -1336 -4 -1365 5 -14 29 -16 165 -16 l159 0
0 302 0 301 58 -81 c31 -45 106 -152 166 -239 60 -87 129 -186 153 -221 l44
-62 187 2 c160 3 187 5 190 19 3 14 -71 121 -365 532 l-121 169 58 76 c118
157 383 528 393 549 22 50 11 53 -173 53 -164 0 -171 -1 -190 -22 -22 -26
-343 -495 -374 -548 l-21 -35 -5 300 -5 300 -152 3 c-142 2 -153 1 -163 -17z"/>
<path d="M6232 4302 c-10 -7 -12 -153 -10 -698 l3 -689 155 0 155 0 5 398 5
397 185 -290 c102 -160 217 -339 255 -398 l71 -107 143 -3 c109 -2 146 1 153
10 9 15 11 1348 2 1372 -5 14 -29 16 -155 16 -142 0 -150 -1 -157 -21 -4 -11
-8 -195 -7 -408 l0 -389 -39 62 c-21 33 -131 207 -244 386 -113 179 -214 335
-225 348 -19 21 -28 22 -151 22 -72 0 -137 -4 -144 -8z"/>
<path d="M7983 4298 c-6 -7 -33 -78 -61 -158 -289 -826 -413 -1183 -415 -1202
l-2 -23 169 0 170 0 45 132 46 133 237 0 236 0 44 -132 45 -133 167 -3 c137
-2 167 0 172 12 3 8 -72 232 -166 498 -94 265 -200 565 -235 664 -35 100 -68
191 -74 203 -11 20 -19 21 -190 21 -131 0 -181 -3 -188 -12z m337 -840 c0 -5
-68 -8 -151 -8 -117 0 -150 3 -146 13 4 9 86 255 143 426 4 12 153 -408 154
-431z"/>
<path d="M8983 4298 c-9 -16 -13 -1305 -4 -1351 l7 -32 164 0 165 0 0 695 0
695 -162 3 c-122 2 -163 -1 -170 -10z"/>
</g>
</svg>
